<svg fill="none" height="528" viewBox="0 0 690 528" width="690" xmlns="http://www.w3.org/2000/svg" xmlns:xlink="http://www.w3.org/1999/xlink"><linearGradient id="a"><stop offset="0" stop-color="#0c132c"/><stop offset=".15" stop-color="#121b3f"/><stop offset=".32" stop-color="#16204b"/><stop offset=".47" stop-color="#17224f"/><stop offset=".65" stop-color="#15204a"/><stop offset=".85" stop-color="#111a3c"/><stop offset="1" stop-color="#0c132c"/></linearGradient><linearGradient id="b" gradientUnits="userSpaceOnUse" x1=".999762" x2="610.917" xlink:href="#a" y1="449.175" y2="449.175"/><linearGradient id="c" gradientUnits="userSpaceOnUse" x1=".999762" x2="586.11" xlink:href="#a" y1="420.584" y2="420.584"/><linearGradient id="d" gradientUnits="userSpaceOnUse" x1=".999762" x2="560.993" xlink:href="#a" y1="391.643" y2="391.643"/><linearGradient id="e" gradientUnits="userSpaceOnUse" x1=".999762" x2="537.168" xlink:href="#a" y1="364.187" y2="364.187"/><linearGradient id="f" gradientUnits="userSpaceOnUse" x1=".999762" x2="511.858" xlink:href="#a" y1="335.011" y2="335.011"/><linearGradient id="g" gradientUnits="userSpaceOnUse" x1=".999762" x2="487.424" xlink:href="#a" y1="306.849" y2="306.849"/><linearGradient id="h" gradientUnits="userSpaceOnUse" x1=".999762" x2="462.736" xlink:href="#a" y1="278.4" y2="278.4"/><linearGradient id="i" gradientUnits="userSpaceOnUse" x1=".999762" x2="416.557" xlink:href="#a" y1="249.646" y2="249.646"/><linearGradient id="j" gradientUnits="userSpaceOnUse" x1=".999762" x2="660.182" xlink:href="#a" y1="505.953" y2="505.953"/><linearGradient id="k" gradientUnits="userSpaceOnUse" x1=".999762" x2="635.375" xlink:href="#a" y1="477.369" y2="477.369"/><linearGradient id="l" gradientUnits="userSpaceOnUse" x1="62.6277" x2="688.118" xlink:href="#a" y1="527.498" y2="527.498"/><linearGradient id="m" gradientUnits="userSpaceOnUse" x1="13.0149" x2="684.883" xlink:href="#a" y1="527.495" y2="527.495"/><linearGradient id="n" gradientUnits="userSpaceOnUse" x1="161.171" x2="688.112" xlink:href="#a" y1="527.499" y2="527.499"/><linearGradient id="o" gradientUnits="userSpaceOnUse" x1="111.552" x2="688.105" xlink:href="#a" y1="527.498" y2="527.498"/><linearGradient id="p" gradientUnits="userSpaceOnUse" x1="260.179" x2="688.106" xlink:href="#a" y1="527.502" y2="527.502"/><linearGradient id="q" gradientUnits="userSpaceOnUse" x1="210.56" x2="688.099" xlink:href="#a" y1="527.496" y2="527.496"/><linearGradient id="r" gradientUnits="userSpaceOnUse" x1="358.71" x2="688.1" xlink:href="#a" y1="527.5" y2="527.5"/><linearGradient id="s" gradientUnits="userSpaceOnUse" x1="309.097" x2="688.093" xlink:href="#a" y1="527.496" y2="527.496"/><linearGradient id="t" gradientUnits="userSpaceOnUse" x1="457.738" x2="688.093" xlink:href="#a" y1="527.5" y2="527.5"/><linearGradient id="u" gradientUnits="userSpaceOnUse" x1="408.118" x2="688.087" xlink:href="#a" y1="527.496" y2="527.496"/><linearGradient id="v" gradientUnits="userSpaceOnUse" x1="556.268" x2="688.087" xlink:href="#a" y1="527.497" y2="527.497"/><linearGradient id="w" gradientUnits="userSpaceOnUse" x1="506.655" x2="688.087" xlink:href="#a" y1="527.498" y2="527.498"/><linearGradient id="x" gradientUnits="userSpaceOnUse" x1="655.32" x2="688.13" xlink:href="#a" y1="527.501" y2="527.501"/><linearGradient id="y" gradientUnits="userSpaceOnUse" x1="605.707" x2="688.124" xlink:href="#a" y1="527.498" y2="527.498"/><linearGradient id="z" gradientUnits="userSpaceOnUse" x1="124.455" x2="689.037" xlink:href="#a" y1="446.773" y2="446.773"/><linearGradient id="A" gradientUnits="userSpaceOnUse" x1="149.261" x2="689.037" xlink:href="#a" y1="418.182" y2="418.182"/><linearGradient id="B" gradientUnits="userSpaceOnUse" x1="174.372" x2="689.037" xlink:href="#a" y1="389.238" y2="389.238"/><linearGradient id="C" gradientUnits="userSpaceOnUse" x1="198.198" x2="689.037" xlink:href="#a" y1="361.782" y2="361.782"/><linearGradient id="D" gradientUnits="userSpaceOnUse" x1="223.519" x2="689.037" xlink:href="#a" y1="332.609" y2="332.609"/><linearGradient id="E" gradientUnits="userSpaceOnUse" x1="247.941" x2="689.037" xlink:href="#a" y1="304.449" y2="304.449"/><linearGradient id="F" gradientUnits="userSpaceOnUse" x1="272.636" x2="689.037" xlink:href="#a" y1="276.002" y2="276.002"/><linearGradient id="G" gradientUnits="userSpaceOnUse" x1="297.585" x2="689.037" xlink:href="#a" y1="247.253" y2="247.253"/><linearGradient id="H" gradientUnits="userSpaceOnUse" x1="327.024" x2="689.037" xlink:href="#a" y1="219.093" y2="219.093"/><linearGradient id="I" gradientUnits="userSpaceOnUse" x1="75.1897" x2="689.037" xlink:href="#a" y1="503.553" y2="503.553"/><linearGradient id="J" gradientUnits="userSpaceOnUse" x1="99.99" x2="689.037" xlink:href="#a" y1="474.96" y2="474.96"/><linearGradient id="K" gradientUnits="userSpaceOnUse" x1="25.676" x2="631.576" xlink:href="#a" y1="527.498" y2="527.498"/><linearGradient id="L" gradientUnits="userSpaceOnUse" x1="50.4885" x2="681.188" xlink:href="#a" y1="527.499" y2="527.499"/><linearGradient id="M" gradientUnits="userSpaceOnUse" x1="6.09156" x2="533.033" xlink:href="#a" y1="527.499" y2="527.499"/><linearGradient id="N" gradientUnits="userSpaceOnUse" x1="6.09791" x2="582.652" xlink:href="#a" y1="527.498" y2="527.498"/><linearGradient id="O" gradientUnits="userSpaceOnUse" x1="6.09791" x2="434.024" xlink:href="#a" y1="527.502" y2="527.502"/><linearGradient id="P" gradientUnits="userSpaceOnUse" x1="6.10377" x2="483.643" xlink:href="#a" y1="527.498" y2="527.498"/><linearGradient id="Q" gradientUnits="userSpaceOnUse" x1="6.10377" x2="335.493" xlink:href="#a" y1="527.501" y2="527.501"/><linearGradient id="R" gradientUnits="userSpaceOnUse" x1="6.11011" x2="385.106" xlink:href="#a" y1="527.498" y2="527.498"/><linearGradient id="S" gradientUnits="userSpaceOnUse" x1="6.11011" x2="236.466" xlink:href="#a" y1="527.501" y2="527.501"/><linearGradient id="T" gradientUnits="userSpaceOnUse" x1="6.11632" x2="286.085" xlink:href="#a" y1="527.496" y2="527.496"/><linearGradient id="U" gradientUnits="userSpaceOnUse" x1="6.11632" x2="137.935" xlink:href="#a" y1="527.497" y2="527.497"/><linearGradient id="V" gradientUnits="userSpaceOnUse" x1="6.12267" x2="187.549" xlink:href="#a" y1="527.496" y2="527.496"/><linearGradient id="W" gradientUnits="userSpaceOnUse" x1="6.073" x2="38.8834" xlink:href="#a" y1="527.501" y2="527.501"/><linearGradient id="X" gradientUnits="userSpaceOnUse" x1="6.07886" x2="88.496" xlink:href="#a" y1="527.498" y2="527.498"/><linearGradient id="Y"><stop offset="0" stop-color="#00c0cd"/><stop offset=".01" stop-color="#03bdcd"/><stop offset=".08" stop-color="#1aa2cc"/><stop offset=".17" stop-color="#2d8ccc"/><stop offset=".27" stop-color="#3b7bcb"/><stop offset=".39" stop-color="#456fcb"/><stop offset=".56" stop-color="#4b68cb"/><stop offset="1" stop-color="#4d66cb"/></linearGradient><linearGradient id="Z" gradientUnits="userSpaceOnUse" x1="298.647" x2="298.647" xlink:href="#Y" y1="53.4536" y2="457.673"/><linearGradient id="aa" gradientUnits="userSpaceOnUse" x1="285.647" x2="285.647" xlink:href="#Y" y1="67.4536" y2="471.673"/><linearGradient id="ab" gradientUnits="userSpaceOnUse" x1="532.855" x2="532.855" y1="506.139" y2="35.7571"><stop offset="0" stop-color="#17224f"/><stop offset=".31" stop-color="#293979"/><stop offset=".78" stop-color="#4359b4"/><stop offset="1" stop-color="#4d66cb"/></linearGradient><linearGradient id="ac" gradientUnits="userSpaceOnUse" x1="519.063" x2="-161.404" y1="-85.3785" y2="-235.997"><stop offset="0" stop-color="#17224f"/><stop offset=".02" stop-color="#192455"/><stop offset=".16" stop-color="#20306f"/><stop offset=".31" stop-color="#263984"/><stop offset=".48" stop-color="#2b3f93"/><stop offset=".68" stop-color="#2d439b"/><stop offset="1" stop-color="#2e449e"/></linearGradient><linearGradient id="ad" gradientUnits="userSpaceOnUse" x1="188.468" x2="364.364" y1="323.624" y2="546.924"><stop offset="0" stop-color="#f66"/><stop offset=".03" stop-color="#de6679"/><stop offset=".08" stop-color="#b8668e"/><stop offset=".13" stop-color="#9766a1"/><stop offset=".19" stop-color="#7c66b0"/><stop offset=".24" stop-color="#6766bc"/><stop offset=".31" stop-color="#5866c5"/><stop offset=".39" stop-color="#5066ca"/><stop offset=".51" stop-color="#4d66cb"/><stop offset=".87" stop-color="#00c0cd"/></linearGradient><path d="m610.774 97.7988-41.168 23.7242-24.95 14.376-24.427 14.072-24.943 14.376-24.695 14.233-24.428 14.072-25.309 14.593h-.007l-23.819 13.725-25.117 14.469-24.812 14.295-24.453 14.097-24.813 14.295-24.701 14.234-24.812 14.295-24.453 14.097-24.813 14.295-24.694 14.233-24.813 14.289-24.459 14.097-24.806 14.295-24.6951 14.24h-.0062l-24.8127 14.295-24.4588 14.091-25.16662 14.506" stroke="url(#b)" stroke-width=".91"/><path d="m585.967 83.5029-41.168 23.7241-24.949 14.376-24.428 14.072-24.949 14.376-24.689 14.227-24.427 14.078-25.316 14.593-23.825 13.725-25.117 14.469-24.807 14.295-24.459 14.097-24.8 14.295-24.713 14.234-24.801 14.295h-.006l-24.459 14.097-24.806 14.295-24.695 14.233h-.006l-24.8 14.296-24.465 14.09h-.007l-24.7999 14.296-24.7009 14.233-24.8127 14.301-24.81892 14.302" stroke="url(#c)" stroke-width=".91"/><path d="m560.85 69.0342-41.162 23.718-24.955 14.3758-24.428 14.078-24.943 14.376-24.695 14.227-24.427 14.079-25.316 14.586-23.825 13.725-25.111 14.475-24.813 14.295-24.459 14.091-24.8 14.295-24.707 14.234-24.807 14.301-24.465 14.091-24.806 14.295-24.695 14.233-24.8063 14.289h-.0063l-24.4587 14.104-24.8003 14.295-24.701 14.233-24.52082 14.128" stroke="url(#d)" stroke-width=".91"/><path d="m537.025 55.3027-41.162 23.718-24.955 14.3821-24.428 14.0782-24.943 14.376-24.695 14.221-24.428 14.078-25.315 14.587-23.82 13.731-25.117 14.475-24.812 14.295-24.453 14.091-24.806 14.289-24.708 14.239-24.806 14.296-24.459 14.097-24.806 14.295h-.007l-24.694 14.227-24.8068 14.295-24.4649 14.097-24.8003 14.295-25.39642 14.637" stroke="url(#e)" stroke-width=".91"/><path d="m511.716 40.7168-41.169 23.7242-24.949 14.3758-24.428 14.0721-24.949 14.3761-24.689 14.227-24.433 14.078-25.31 14.587-23.825 13.731-25.117 14.469-24.807 14.295-24.459 14.097-24.806 14.295-24.707 14.233-24.801 14.296h-.006l-24.458 14.097-24.807 14.289h-.0062l-24.6885 14.239-24.8065 14.295-24.465 14.091h-.0062l-24.88102 14.345" stroke="url(#f)" stroke-width=".91"/><path d="m487.282 26.6387-41.162 23.7242-24.95 14.3758-24.434 14.0783-24.943 14.3697-24.694 14.2333-24.428 14.072-25.31 14.587-23.825 13.731-25.117 14.469-24.807 14.301-24.458 14.091-24.807 14.295h-.006l-24.701 14.233-24.806 14.296h-.007l-24.452 14.097-24.8067 14.295h-.0062l-24.6948 14.227h-.0062l-24.8065 14.295-24.91202 14.357" stroke="url(#g)" stroke-width=".91"/><path d="m462.593 12.4111-41.168 23.7242-24.949 14.3759-24.428 14.0721-24.949 14.3758-24.689 14.2271-24.428 14.0788-25.315 14.592-23.826 13.725-25.111 14.469-24.812 14.295-24.459 14.103h-.006l-24.794 14.29-24.707 14.233-24.807 14.295h-.006l-24.4589 14.091h-.0063l-24.8002 14.301-24.6948 14.234-25.03622 14.425" stroke="url(#h)" stroke-width=".91"/><path d="m1.14258 249.566 24.78782-14.283 24.8065-14.289 24.465-14.103 24.8001-14.295 24.714-14.233 24.8-14.289 24.459-14.103 24.806-14.296 25.117-14.469 23.826-13.724 25.315-14.5933 24.428-14.0721 24.688-14.2271 24.95-14.3758 24.427-14.0783 24.95-14.3759 19.932-11.487" stroke="url(#i)" stroke-width=".91"/><path d="m660.039 126.185-41.168 23.724h-.006l-24.943 14.376-24.428 14.078-24.949 14.376-24.689 14.227-24.428 14.078-25.315 14.581-23.826 13.731-25.117 14.475-24.8 14.295-24.465 14.091-24.806 14.295-24.701 14.239-24.807 14.296-24.459 14.09-24.812 14.296-24.695 14.233-24.807 14.295-24.458 14.097-24.807 14.295h-.006l-24.701 14.234-24.807 14.295h-.006l-24.4523 14.097-24.8127 14.295-24.7134 14.24-24.91202 14.357" stroke="url(#j)" stroke-width=".91"/><path d="m635.233 111.896-41.162 23.718-24.956 14.375-24.428 14.085-24.943 14.376-24.694 14.221-24.428 14.078-25.316 14.587-23.819 13.724-25.117 14.475-24.806 14.296h-.007l-24.458 14.097-24.801 14.289-24.707 14.239-24.806 14.295-24.459 14.097h-.006l-24.801 14.296-24.694 14.227h-.007l-24.806 14.295-24.465 14.097-24.8 14.295-24.701 14.233-24.8192 14.296-24.4526 14.09h-.0062l-24.8003 14.302-24.82512 14.307" stroke="url(#k)" stroke-width=".91"/><path d="m687.975 167.154-625.2045 360.265" stroke="url(#l)" stroke-width=".91"/><path d="m13.1577 527.413 12.7914-7.371 24.8065-14.295 24.7195-14.24 24.8069-14.295 24.452-14.097 24.813-14.295 24.707-14.234 24.807-14.295 24.458-14.097 24.807-14.295 24.701-14.233 24.806-14.296 24.459-14.09 24.813-14.295 24.701-14.234 24.806-14.295 24.459-14.097 24.806-14.295 25.117-14.475 23.826-13.725 25.315-14.587 24.428-14.078 24.689-14.227 24.949-14.376 24.428-14.078 24.943-14.37 41.168-23.724" stroke="url(#m)" stroke-width=".91"/><path d="m687.969 223.939-526.656 303.48" stroke="url(#n)" stroke-width=".91"/><path d="m687.963 195.349-576.269 332.07" stroke="url(#o)" stroke-width=".91"/><path d="m687.963 280.99-427.641 246.429" stroke="url(#p)" stroke-width=".91"/><path d="m687.963 252.405-477.26 275.014" stroke="url(#q)" stroke-width=".91"/><path d="m687.963 337.774-329.11 189.645" stroke="url(#r)" stroke-width=".91"/><path d="m687.956 309.189-378.716 218.23" stroke="url(#s)" stroke-width=".91"/><path d="m687.957 394.844-230.077 132.575" stroke="url(#t)" stroke-width=".91"/><path d="m687.95 366.247-279.689 161.172" stroke="url(#u)" stroke-width=".91"/><path d="m687.95 451.622-131.539 75.797" opacity=".75" stroke="url(#v)" stroke-width=".91"/><path d="m687.944 423.031-181.146 104.388" stroke="url(#w)" stroke-width=".91"/><path d="m687.988 508.673-32.525 18.746" opacity=".25" stroke="url(#x)" stroke-width=".91"/><path d="m687.981 480.088-82.131 47.33" opacity=".5" stroke="url(#y)" stroke-width=".91"/><path d="m124.598 121.522 24.943 14.376 24.434 14.072 24.943 14.376 24.695 14.234 24.427 14.072 25.31 14.592 23.825 13.725 25.117 14.469 24.807 14.296 24.458 14.096h.007l24.806 14.296 24.701 14.233 24.807 14.295 24.458 14.097 24.813 14.295 24.695 14.234 24.812 14.289 24.459 14.097 24.807 14.295 24.694 14.239h.007l24.812 14.296 24.459 14.09 21 12.101" stroke="url(#z)" stroke-width=".91"/><path d="m149.404 107.228 24.95 14.375 24.427 14.072 24.95 14.376 24.688 14.227 24.428 14.079 25.316 14.593 23.825 13.724 25.111 14.469 24.812 14.296 24.459 14.096 24.801 14.296 24.707 14.233 24.806 14.295h.006l24.459 14.097 24.807 14.295 24.694 14.234h.007l24.8 14.295 24.465 14.091 24.806 14.295 24.701 14.233 24.813 14.302 20.652 11.896" stroke="url(#A)" stroke-width=".91"/><path d="m174.515 92.752 24.955 14.376 24.428 14.078 24.943 14.376 24.695 14.227 24.427 14.078 25.316 14.587 23.819 13.725 25.117 14.475 24.813 14.295 24.459 14.091 24.8 14.295 24.707 14.233 24.807 14.302 24.465 14.091 24.806 14.295 24.695 14.233 24.806 14.289h.007l24.458 14.103 24.801 14.296 24.701 14.233 20.354 11.722" stroke="url(#B)" stroke-width=".91"/><path d="m198.34 79.0215 24.95 14.382 24.434 14.0785 24.943 14.376 24.694 14.221 24.428 14.078 25.31 14.586 23.825 13.732 25.117 14.475 24.806 14.295h.007l24.452 14.091 24.807 14.289 24.707 14.239 24.806 14.295 24.459 14.097 24.807 14.296h.006l24.695 14.227 24.806 14.295 24.465 14.097 24.8 14.295 21.23 12.231" stroke="url(#C)" stroke-width=".91"/><path d="m223.662 64.4404 24.943 14.3759 24.428 14.0721 24.949 14.3756 24.689 14.227 24.427 14.079 25.316 14.586 23.826 13.731 25.117 14.469 24.806 14.295 24.459 14.097 24.806 14.296 24.707 14.233 24.801 14.295h.006l24.459 14.097 24.806 14.289h.006l24.689 14.24 24.806 14.295 24.465 14.091 20.721 11.939" stroke="url(#D)" stroke-width=".91"/><path d="m248.083 50.3623 24.95 14.3759 24.434 14.0783 24.943 14.3696 24.688 14.2329 24.434 14.072 25.31 14.587 23.825 13.731 25.117 14.469 24.807 14.302 24.458 14.09 24.807 14.296 24.707 14.233 24.807 14.295h.006l24.452 14.097 24.807 14.295h.006l24.695 14.227h.006l24.806 14.296 20.746 11.958" stroke="url(#E)" stroke-width=".91"/><path d="m272.778 36.1357 24.95 14.3759 24.427 14.0721 24.943 14.3759 24.695 14.227 24.428 14.0784 25.316 14.593 23.825 13.725 25.111 14.469 24.812 14.295 24.459 14.103 24.801 14.289 24.707 14.233 24.806 14.296h.006l24.459 14.09h.006l24.801 14.302 24.694 14.233 20.87 12.026" stroke="url(#F)" stroke-width=".91"/><path d="m297.728 21.7598 24.943 14.3758 24.427 14.0721 24.95 14.3759 24.688 14.2333 24.434 14.072 25.31 14.5931 23.825 13.725 25.117 14.469 24.806 14.295 24.459 14.103 24.807 14.289 24.707 14.233 24.8 14.296.006.006 24.459 14.09 24.807 14.296h.006l20.615 11.883" stroke="url(#G)" stroke-width=".91"/><path d="m688.894 219.011-20.994-12.101-24.465-14.091-24.806-14.295-24.707-14.239-24.801-14.296-24.458-14.09-24.813-14.295-25.117-14.476-23.819-13.7245-25.316-14.5866-24.428-14.0783-24.694-14.2271-24.943-14.3758-24.428-14.0783-19.938-11.4871" stroke="url(#H)" stroke-width=".91"/><path d="m688.894 503.471-20.745-11.958-24.714-14.239-24.812-14.296-24.459-14.097-24.806-14.295-24.701-14.233h-.007l-24.806-14.295-24.459-14.097-24.806-14.296-24.701-14.233-24.807-14.295-24.459-14.091-24.806-14.295-24.707-14.24-24.801-14.295-24.465-14.091-24.8-14.295-25.117-14.475-23.825-13.731-25.316-14.58-24.428-14.079h-.006l-24.682-14.227-24.949-14.376-24.428-14.078-24.9495-14.376" stroke="url(#I)" stroke-width=".91"/><path d="m100.133 135.613 24.955 14.376 24.428 14.085 24.937 14.375h.006l24.695 14.221 24.428 14.079 25.315 14.586 23.819 13.725 25.117 14.475 24.813 14.296 24.453 14.096 24.806 14.29 24.707 14.239 24.807 14.295 24.459 14.097 24.806 14.295 24.695 14.227h.006l24.807 14.296 24.465 14.097 24.8 14.295 24.701 14.233 24.819 14.295 24.452 14.091h.006l24.801 14.302 20.658 11.896" stroke="url(#J)" stroke-width=".91"/><path d="m25.8188 178.443 24.9494 14.376 24.4277 14.079 24.9431 14.369h.006l24.683 14.227h.006l24.427 14.079 25.316 14.586 23.826 13.731 25.11 14.469h.007l24.8 14.295 24.465 14.097 24.806 14.296 24.701 14.233 24.813 14.295 24.459 14.091 24.806 14.295 24.695 14.233 24.813 14.296 24.458 14.097 24.807 14.295 24.701 14.233 24.813 14.295 24.458 14.091 24.807 14.295 24.719 14.246 12.792 7.371" stroke="url(#K)" stroke-width=".91"/><path d="m50.6313 164.148 24.9432 14.37 24.4275 14.078 24.949 14.376 24.689 14.227 24.428 14.079 25.315 14.586 23.826 13.725 25.111 14.475 24.812 14.295 24.459 14.097 24.807 14.296 24.707 14.233 24.806 14.295 24.459 14.091 24.806 14.295 24.701 14.233 24.807 14.296 24.459 14.097 24.806 14.295 24.707 14.233 24.807 14.295 24.459 14.097 24.806 14.296 24.72 14.239 24.806 14.295 12.791 7.371" stroke="url(#L)" stroke-width=".91"/><path d="m532.89 527.419-526.65562-303.48" stroke="url(#M)" stroke-width=".91"/><path d="m582.509 527.419-576.26828-332.07" stroke="url(#N)" stroke-width=".91"/><path d="m433.881 527.419-427.64028-246.429" stroke="url(#O)" stroke-width=".91"/><path d="m483.5 527.419-477.25342-275.014" stroke="url(#P)" stroke-width=".91"/><path d="m335.35 527.419-329.10342-189.645" stroke="url(#Q)" stroke-width=".91"/><path d="m384.963 527.419-378.71007-218.23" stroke="url(#R)" stroke-width=".91"/><path d="m236.323 527.419-230.07007-132.575" stroke="url(#S)" stroke-width=".91"/><path d="m285.942 527.419-279.68907-161.172" stroke="url(#T)" stroke-width=".91"/><path d="m137.793 527.419-131.54007-75.797" opacity=".75" stroke="url(#U)" stroke-width=".91"/><path d="m187.406 527.419-181.14672-104.388" stroke="url(#V)" stroke-width=".91"/><path d="m38.7406 527.419-32.52478-18.746" opacity=".25" stroke="url(#W)" stroke-width=".91"/><path d="m88.3532 527.418-82.13152-47.33" opacity=".5" stroke="url(#X)" stroke-width=".91"/><path d="m559.608 207.124v250.003l-260.608-154.528v-248.599z" fill="#0c132c" stroke="url(#Z)"/><path d="m546.608 221.124v250.003l-260.608-154.528v-248.599z" fill="#0c132c" stroke="url(#aa)"/><path d="m207.363 317.859v-281.568l325.117 187.714v281.593z" fill="#17224f" stroke="url(#ab)"/><path d="m228.177 122.657 138.711 80.089" stroke="#4d66cb"/><path d="m242.519 151.77 271.784 156.663" stroke="#4d66cb"/><path d="m242.56 173.914 271.743 157.284" stroke="#4d66cb"/><ellipse cx="209.257" cy="26.6947" rx="1.89386" ry="2.99547" stroke="#4d66cb"/><ellipse cx="218.341" cy="31.892" rx="1.89386" ry="2.99547" stroke="#4d66cb"/><ellipse cx="227.425" cy="37.1439" fill="#4d66cb" rx="1.89386" ry="2.99547"/><path clip-rule="evenodd" d="m217.788 62.8025c-.117-.0639-.211-.1641-.267-.2856-.065-.1418-.095-.2973-.087-.4532v-8.9905c0-.1925.038-.3043.1-.3539.062-.0497.143-.0373.267.0372l2.421 1.397c.704.3867 1.286.9605 1.683 1.6578.372.666.564 1.4168.559 2.1793.021.4072-.086.8107-.304 1.1549-.16.2619-.445.4218-.752.4222v.0621c.244.2079.454.4531.621.7264.216.3539.391.7309.522 1.1238.14.412.211.8441.211 1.2791 0 .9499-.205 1.5522-.621 1.8068-.416.2545-1.018.149-1.863-.3229zm2.397-4.5387c.226.1839.539.2202.801.0932.223-.1822.335-.4662.298-.7513.023-.7806-.405-1.5048-1.099-1.8627l-1.664-.9624v2.527zm.286 4.4829c.354.2049.621.2359.807.0993s.286-.4222.286-.8755c.002-.4075-.11-.8075-.323-1.1548-.234-.3637-.554-.6644-.932-.8755l-1.788-1.0307v2.7133z" fill="#4d66cb" fill-rule="evenodd"/><path clip-rule="evenodd" d="m238.534 64.5541-.087.5526-.124-.0745c-.311-.1801-.528-.2173-.665-.1242-.172.161-.27.3853-.273.6209l-1 6.4573c-.023.123-.037.2475-.043.3725.028.4319.297.8112.695.981l.125.0683-.087.5526-2.807-1.6205.075-.5588.13.0745c.534.3042.851.149.944-.4843l1.006-6.4573c.021-.1251.034-.2517.037-.3787-.029-.4301-.298-.8071-.695-.9748l-.125-.0745.087-.5526z" fill="#4d66cb" fill-rule="evenodd"/><path clip-rule="evenodd" d="m252.84 73.0224c1.091.7139 1.895 1.7887 2.273 3.0362l-.726.3725c-.16-.4656-.368-.913-.621-1.3349-.246-.3828-.572-.7071-.957-.9499-1.304-.7513-1.353.4718-1.353.7264 0 1.1611.857 1.9372 1.546 2.5457l3.042 1.7571c.306.2383.483.6058.479.9934 0 .3974-.212.6209-.479.4408l-1.092-.6209c.191.4816.281.9971.267 1.515 0 1.0059-.336 2.7506-2.41 1.546-1.204-.7858-2.106-1.9569-2.558-3.3217l.745-.3912c.3 1.0172.929 1.906 1.789 2.527.763.4471 1.167.3477 1.384-.0869.249-.725.114-1.5268-.36-2.1296-.149-.2049-.323-.4036-.522-.6209l-3.998-2.3098c-.31-.2384-.49-.6087-.485-.9996 0-.3974.218-.5898.485-.4408l1.62.9437c-.242-.541-.367-1.1271-.366-1.7198-.012-2.0987 1.279-2.0676 2.297-1.4778z" fill="#4d66cb" fill-rule="evenodd"/><path clip-rule="evenodd" d="m273.406 93.5249v2.1545l-8.693-5.0231v-2.1544zm-3.682-10.7415c.123.0968.205.2365.23.3912l1.304 7.2148c.037.2111 0 .3725-.162.3539h-.068l-.354-.2049c-.129-.0929-.214-.2342-.236-.3912l-.329-1.8627c-.023-.1552-.108-.2944-.236-.3849l-1.627-.9438c-.112-.0621-.205 0-.236.118l-.329 1.4529c0 .1304-.124.18-.236.118l-.354-.2049c-.154-.1186-.244-.3024-.242-.4967-.003-.0331-.003-.0664 0-.0994l1.304-5.706c.031-.1304.124-.18.23-.118zm-.571 1.1052-.187-.1055c-.105-.0621-.198 0-.229.1242l-.292 1.2417c-.036.1956.024.3964.161.5402.02.0222.043.0411.068.0559l.77.4408c.131.0807.243 0 .243-.2173.003-.0372.003-.0746 0-.1117l-.292-1.6019c-.034-.1476-.12-.2778-.242-.3664z" fill="#4d66cb" fill-rule="evenodd"/><path clip-rule="evenodd" d="m297.535 108.197v2.148l-8.693-5.023v-2.154zm-5.24-10.2076 1.999 4.1286-1.999 1.82c-.093.08-.249 0-.342-.199l-.31-.658-.528.484-2.267-1.31 1.615-1.459-.379-.789zm3.104-.6706.677 1.4281c.354.7388.354 1.6021 0 1.9251l-1.397 1.272-.863-1.794-.261-.5339-.863-1.782 1.416-1.2417c.372-.3415.95-.0063 1.304.714z" fill="#4d66cb" fill-rule="evenodd"/><path clip-rule="evenodd" d="m319.734 111.704v-.739c.005-.39-.175-.761-.484-.999l-5.794-3.347c-.26-.155-.478.044-.478.441v2.869c-.006.389.171.76.478.999l5.794 3.347c.267.155.484-.044.484-.441v-.695l.478.279v2.869l-4.825-2.788v6.457c-.004.391.175.761.485 1l.962.558c.267.149.485-.049.485-.44v-5.023l3.862 2.229v-5.744z" fill="#4d66cb" fill-rule="evenodd"/><path d="m531.451 253.454-324.05-187.081" stroke="#4d66cb"/><path clip-rule="evenodd" d="m334.686 120.012 6.756 3.905c.308.237.487.605.484.994 0 .397-.217.62-.484.44l-6.756-3.905c-.31-.238-.489-.609-.484-1 .006-.397.223-.59.484-.434zm0 2.868 3.862 2.229c.308.24.485.61.478 1 0 .397-.211.59-.478.441l-3.862-2.236c-.308-.237-.487-.604-.484-.993.006-.397.223-.596.484-.441zm0 5.743 3.862 2.229c.308.24.485.61.478 1 0 .397-.211.59-.478.435l-3.862-2.229c-.31-.239-.489-.609-.484-1 .006-.391.223-.59.484-.435zm0-2.874 6.756 3.911c.308.237.487.605.484.994 0 .397-.217.621-.484.441l-6.756-3.906c-.31-.238-.489-.609-.484-.999.006-.398.223-.59.484-.441z" fill="#4d66cb" fill-rule="evenodd"/><path clip-rule="evenodd" d="m351.582 129.778 6.756 3.906c.308.237.487.604.484.993 0 .397-.217.621-.484.441l-6.756-3.905c-.31-.239-.489-.609-.484-1 0-.397.217-.59.484-.435zm1.447 3.726 3.862 2.229c.31.238.489.608.484.999 0 .398-.217.59-.484.441l-3.862-2.235c-.308-.24-.485-.61-.478-1 0-.41.211-.621.478-.453zm0 5.743 3.862 2.229c.31.238.489.609.484 1 0 .391-.217.589-.484.434l-3.862-2.229c-.308-.24-.485-.61-.478-.999 0-.416.211-.609.478-.454zm-1.447-3.725 6.756 3.911c.308.237.487.605.484.994 0 .397-.217.62-.484.44l-6.756-3.905c-.31-.238-.489-.609-.484-1 0-.403.217-.596.484-.447z" fill="#4d66cb" fill-rule="evenodd"/><path clip-rule="evenodd" d="m367.993 139.266 6.756 3.905c.306.238.483.606.478.993 0 .398-.211.621-.478.441l-6.756-3.905c-.31-.239-.489-.609-.484-1 0-.397.217-.59.484-.434zm2.894 4.545 3.862 2.229c.307.239.485.609.478.999 0 .398-.211.59-.478.435l-3.862-2.229c-.31-.239-.489-.609-.485-1 0-.372.218-.59.485-.434zm0 5.737 3.862 2.235c.307.239.485.61.478.999 0 .392-.211.59-.478.435l-3.862-2.229c-.31-.238-.489-.609-.485-1 0-.397.218-.589.485-.44zm-2.894-4.545 6.756 3.911c.306.239.483.606.478.994 0 .397-.211.621-.478.441l-6.756-3.906c-.31-.238-.489-.609-.484-1 0-.397.217-.589.484-.44z" fill="#4d66cb" fill-rule="evenodd"/><path clip-rule="evenodd" d="m384.398 148.753 6.756 3.906c.308.237.488.604.485.993 0 .397-.218.621-.485.441l-6.756-3.906c-.309-.238-.489-.608-.484-.999 0-.391.217-.59.484-.435zm0 2.869 6.756 3.905c.31.238.49.609.485 1 0 .397-.218.59-.485.434l-6.756-3.905c-.308-.237-.487-.605-.484-.994 0-.397.217-.596.484-.44zm0 2.868 6.756 3.912c.308.237.488.605.485.993 0 .398-.218.621-.485.441l-6.756-3.905c-.309-.239-.489-.609-.484-1 0-.397.217-.59.484-.441zm0 2.875 6.756 3.905c.31.239.49.609.485 1 0 .391-.218.59-.485.435l-6.756-3.931c-.308-.237-.487-.604-.484-.993 0-.373.217-.571.484-.416z" fill="#4d66cb" fill-rule="evenodd"/><path clip-rule="evenodd" d="m407.082 170.825 3.862 2.229c.307.24.484.61.478 1 0 .391-.211.59-.478.435l-3.862-2.229c-.31-.239-.49-.609-.485-1 0-.397.218-.59.485-.435zm0-4.309 3.862 2.229c.307.24.484.61.478 1 0 .397-.211.59-.478.441l-3.862-2.235c-.308-.237-.488-.605-.485-.994 0-.397.218-.596.485-.441zm0-4.309 3.862 2.236c.306.238.482.605.478.993 0 .397-.211.621-.478.441l-3.862-2.229c-.31-.239-.49-.609-.485-1 0-.397.218-.59.485-.441zm-1.931-1.831v2.514c0 .193-.106.292-.243.218-.154-.119-.243-.303-.242-.497v-1.794l-.236-.143c-.154-.119-.243-.303-.242-.497 0-.199.106-.298.242-.217zm-.485 6.029c.001.083.04.161.106.211l.621.36c.154.118.243.302.242.497 0 .198-.112.298-.242.217l-.764-.441c-.283-.215-.446-.551-.441-.906v-.162c0-.298.124-.49.311-.49h.546c.062 0 .106-.062.106-.162.003-.085-.037-.167-.106-.217l-.621-.304c-.159-.116-.253-.301-.255-.497 0-.211.112-.317.255-.236l.751.435c.281.219.444.556.441.912v.156c0 .304-.124.496-.316.49h-.553c-.037-.043-.081.043-.081.137zm.969 3.582v1.434c0 .398-.217.59-.484.441l-.721-.422c-.154-.118-.243-.302-.242-.497 0-.205.106-.298.242-.223l.578.335c.08.044.143 0 .143-.13.001-.116-.052-.227-.143-.298l-.621-.36c-.123-.098-.194-.247-.193-.404 0-.155.087-.236.193-.174l.621.366c.08.044.143 0 .143-.13.002-.116-.051-.227-.143-.298l-.578-.335c-.156-.12-.245-.307-.242-.503 0-.199.106-.298.242-.217l.721.416c.309.238.489.608.484.999z" fill="#4d66cb" fill-rule="evenodd"/><path clip-rule="evenodd" d="m431.695 176.439 3.856 2.235c.31.238.49.609.485 1 0 .391-.218.589-.485.434l-3.856-2.229c-.309-.238-.489-.609-.484-.999 0-.398.217-.59.484-.441zm0 4.309 3.856 2.235c.308.237.488.605.485.993 0 .398-.218.621-.485.441l-3.856-2.235c-.308-.237-.487-.605-.484-.993 0-.398.217-.597.484-.441zm0 4.309 3.856 2.229c.31.238.49.608.485.999 0 .398-.218.621-.485.435l-3.856-2.229c-.309-.238-.489-.609-.484-1 0-.397.217-.59.484-.434zm-3.104-9.711c-.019-.227.058-.452.211-.621.146-.126.362-.126.509 0 .23.151.409.367.515.621.135.277.207.58.211.888.016.227-.06.45-.211.621-.151.119-.364.119-.515 0-.228-.151-.406-.368-.509-.621-.15-.273-.233-.577-.242-.888zm0 4.303c-.02-.228.056-.453.211-.621.146-.126.362-.126.509 0 .231.15.411.366.515.621.135.274.207.575.211.881.016.227-.06.451-.211.621-.148.127-.367.127-.515 0-.231-.148-.409-.365-.509-.621-.148-.271-.231-.573-.242-.881zm0 4.309c-.019-.228.058-.452.211-.621.147-.123.361-.123.509 0 .229.152.408.368.515.621.135.274.207.575.211.881.016.227-.06.451-.211.621-.15.122-.365.122-.515 0-.228-.151-.406-.367-.509-.621-.149-.271-.232-.573-.242-.881z" fill="#4d66cb" fill-rule="evenodd"/><path clip-rule="evenodd" d="m453.906 189.278 5.794 3.347c.307.24.484.61.478 1 0 .397-.218.59-.478.434l-5.794-3.346c-.309-.239-.489-.609-.484-1-.012-.391.205-.59.484-.435zm2.41 4.266 3.384 1.956c.305.238.482.606.478.993 0 .398-.218.621-.478.441l-3.384-1.956c-.306-.238-.483-.606-.479-.993-.012-.398.205-.596.466-.441zm0 2.869 3.384 1.955c.305.239.482.606.478.994 0 .397-.218.621-.478.441l-3.384-1.95c-.308-.24-.485-.61-.479-1-.012-.397.205-.589.466-.44zm-2.41 1.477 5.794 3.347c.307.24.484.61.478 1 0 .397-.218.589-.478.44l-5.794-3.352c-.308-.238-.487-.605-.484-.994-.012-.397.205-.596.484-.441zm.752-2.316c.216.315.265.717.13 1.074-.149.243-.447.156-.671-.192l-1.453-2.291c-.285-.447-.285-1.074 0-1.192l1.447-.621c.224-.093.522.168.671.584s.087.825-.131.918l-.844.348z" fill="#4d66cb" fill-rule="evenodd"/><path clip-rule="evenodd" d="m470.299 198.766 5.794 3.346c.309.239.489.609.484 1 0 .397-.217.59-.484.435l-5.794-3.347c-.305-.238-.482-.606-.478-.993 0-.398.23-.597.478-.441zm2.416 4.265 3.378 1.956c.308.237.487.605.484.993 0 .398-.217.621-.484.441l-3.378-1.955c-.308-.238-.488-.605-.485-.994 0-.397.218-.615.485-.441zm0 2.869 3.378 1.956c.309.238.489.608.484.999 0 .391-.217.59-.484.435l-3.378-1.95c-.31-.238-.49-.609-.485-.999 0-.379.218-.59.485-.441zm-2.416 1.477 5.794 3.347c.309.239.489.609.484 1 0 .397-.217.621-.484.441l-5.794-3.353c-.305-.239-.482-.606-.478-.994 0-.397.23-.614.478-.441zm-1.242-3.464.845-.348-.845-1.328c-.222-.313-.273-.716-.136-1.075.149-.242.447-.155.67.193l1.447 2.272c.286.447.286 1.074 0 1.192l-1.447.621c-.223.087-.521-.174-.67-.59s-.075-.844.149-.937z" fill="#4d66cb" fill-rule="evenodd"/><path clip-rule="evenodd" d="m282.41 93.152c.155-.1304.385 0 .534.3166.145.2562.145.5696 0 .8258l-2.037 1.9682c-.149.1428-.391 0-.54-.3166l-2.043-4.3463c-.148-.2509-.148-.5624 0-.8133.143-.1428.379 0 .528.2918l1.769 3.7253z" fill="#4d66cb" fill-rule="evenodd"/><path clip-rule="evenodd" d="m307.023 107.383c.149-.13.385 0 .534.317.145.256.145.57 0 .826l-2.036 1.968c-.149.143-.392 0-.541-.317l-2.042-4.346c-.147-.251-.147-.562 0-.813.149-.143.385 0 .534.292l1.769 3.725z" fill="#4d66cb" fill-rule="evenodd"/><path clip-rule="evenodd" d="m421.878 173.793c.156-.13.392 0 .534.323.142.257.142.569 0 .826l-2.036 1.962c-.149.143-.392 0-.541-.31l-2.042-4.347c-.147-.251-.147-.562 0-.813.142-.137.378 0 .527.292l1.77 3.756z" fill="#4d66cb" fill-rule="evenodd"/><path clip-rule="evenodd" d="m446.493 188.025c.149-.131.385 0 .534.323.145.256.145.569 0 .825l-2.037 1.962c-.149.143-.391 0-.54-.31l-2.043-4.346c-.151-.25-.151-.563 0-.814.143-.136.379 0 .528.298l1.769 3.726z" fill="#4d66cb" fill-rule="evenodd"/><path d="m424.498 442.353-222.94-128.183v-167.17l222.94 128.183z" fill="#0c132c"/><path clip-rule="evenodd" d="m397.53 469.312-222.941-128.391v-190.926l222.941 128.378z" fill-rule="evenodd" stroke="#335dff"/><path d="m387.941 475.303-222.941-128.378v-190.939l222.941 128.391z" fill="url(#ac)"/><g stroke="#4d66cb"><path d="m182.131 189.535-2.748-3.984 4.195-.209"/><path d="m252.498 232.67 4.195-.342-2.83-3.851"/><path d="m224.93 213.499 22.774 13.18"/><path d="m197.962 196.725 15.582 9.585"/><path d="m185.976 189.535 7.191 4.194"/><path d="m217.739 208.706 2.397 1.797"/><path d="m223.133 208.706v1.797"/><path d="m250.7 224.882v1.797"/><path d="m194.717 215.896-2.748-3.984 4.195-.21"/><path d="m272.275 263.823 4.196-.342-2.822-3.852"/><path d="m249.502 247.049 16.78 10.184"/><path d="m233.92 236.863 9.589 5.991"/><path d="m211.146 223.085 10.788 6.59"/><path d="m198.561 215.896 7.192 4.193"/><path d="m225.53 232.071 2.397 1.798"/><path d="m230.924 232.071v1.798"/><path d="m270.477 255.436v1.797"/><path d="m198.916 228.477-2.752-3.983 4.195-.211"/><path d="m286.659 281.796 4.195-.354-2.83-3.839"/><path d="m262.687 264.422 18.578 11.383"/><path d="m235.718 248.246 8.39 5.392"/><path d="m248.303 256.035 8.99 5.392"/><path d="m209.948 232.67 12.585 7.788"/><path d="m202.756 228.477 2.996 1.797"/><path d="m226.728 242.256 2.397 1.797"/><path d="m232.721 242.854v1.798"/><path d="m284.861 274.008v1.797"/><path d="m219.279 251.242-2.739-3.996 4.195-.197"/><path d="m287.258 291.381 4.195-.355-2.83-3.838"/><path d="m350.784 330.921 4.195-.355-2.83-3.838"/><path d="m323.216 311.751 12.585 7.788"/><path d="m256.094 271.012 25.77 14.977"/><path d="m295.049 294.377 23.972 14.378"/><path d="m230.324 255.436 12.586 7.788"/><path d="m223.132 251.242 2.997 1.797"/><path d="m342.137 325.53-2.74-3.997 4.196-.197"/><path d="m346.589 325.529 2.996 1.798"/><path d="m369.362 341.705 4.195-.341-2.821-3.852"/><path d="m360.715 336.314-2.739-3.997 4.195-.197"/><path d="m364.568 336.313 2.996 1.798"/><path d="m247.104 265.021 2.398 1.798"/><path d="m253.097 265.62v1.797"/><path d="m285.46 284.791v1.797"/><path d="m182.131 242.255-2.748-3.983 4.195-.21"/><path d="m252.498 285.39 4.195-.355-2.83-3.839"/><path d="m224.93 266.22 22.774 13.18"/><path d="m197.962 249.444 15.582 9.586"/><path d="m185.976 242.256 7.191 4.194"/><path d="m217.739 261.427 2.397 1.797"/><path d="m223.133 261.427v1.797"/><path d="m250.7 277.603v1.797"/><path d="m194.717 268.616-2.748-3.984 4.195-.21"/><path d="m272.275 316.543 4.196-.355-2.822-3.838"/><path d="m249.502 299.17 16.78 10.185"/><path d="m233.92 289.584 9.589 5.392"/><path d="m211.146 275.805 10.788 6.59"/><path d="m198.561 268.616 7.192 4.194"/><path d="m225.53 284.791 2.397 1.797"/><path d="m230.924 284.791v1.797"/><path d="m270.477 307.557v1.797"/><path d="m198.916 281.197-2.752-3.997 4.195-.197"/><path d="m286.659 334.516 4.195-.342-2.83-3.852"/><path d="m262.687 317.143 18.578 11.382"/><path d="m235.718 300.368 8.39 5.392"/><path d="m248.303 308.755 8.99 5.392"/><path d="m209.948 285.391 12.585 7.788"/><path d="m202.756 281.196 2.996 1.798"/><path d="m226.728 294.976 2.397 1.797"/><path d="m232.721 294.976v1.797"/><path d="m284.861 326.129v1.797"/><path d="m219.279 303.962-2.739-3.984 4.195-.209"/><path d="m287.258 343.502 4.195-.354-2.83-3.839"/><path d="m350.784 383.642 4.195-.354-2.83-3.84"/><path d="m323.216 364.471 12.585 7.189"/><path d="m256.094 323.133 25.77 14.977"/><path d="m295.049 346.498 23.972 14.378"/><path d="m230.324 308.156 12.586 7.788"/><path d="m223.132 303.363 2.997 1.798"/><path d="m342.137 378.25-2.74-3.983 4.196-.21"/><path d="m346.589 377.65 2.996 1.798"/><path d="m369.362 394.425 4.195-.355-2.821-3.839"/><path d="m360.715 389.034-2.739-3.984 4.195-.21"/><path d="m364.568 389.033 2.996 1.797"/><path d="m247.104 317.741 2.398 1.797"/><path d="m253.097 317.741v1.797"/><path d="m285.46 337.512v1.797"/><path d="m182.131 293.778-2.748-3.984 4.195-.21"/><path d="m252.498 337.512 4.195-.342-2.83-3.852"/><path d="m224.93 317.741 22.774 13.18"/><path d="m197.962 300.967 15.582 9.585"/><path d="m185.976 293.777 7.191 4.194"/><path d="m217.739 313.548 2.397 1.797"/><path d="m223.133 313.548v1.797"/><path d="m250.7 329.724v1.797"/><path d="m194.717 320.138-2.748-3.983 4.195-.211"/><path d="m272.275 368.066 4.196-.355-2.822-3.839"/><path d="m249.502 351.291 16.78 10.185"/><path d="m233.92 341.705 9.589 5.392"/><path d="m211.146 327.327 10.788 6.59"/><path d="m198.561 320.138 7.192 4.193"/><path d="m225.53 336.313 2.397 1.798"/><path d="m230.924 336.313v1.798"/><path d="m270.477 359.678v1.797"/><path d="m198.916 332.719-2.752-3.983 4.195-.211"/><path d="m286.659 386.637 4.195-.342-2.83-3.852"/><path d="m262.687 369.264 18.578 11.382"/><path d="m235.718 352.489 8.39 5.392"/><path d="m248.303 360.277 8.99 5.392"/><path d="m209.948 337.512 12.585 7.788"/><path d="m202.756 332.719 2.996 1.797"/><path d="m226.728 347.097 2.397 1.797"/><path d="m232.721 347.097v1.797"/><path d="m284.861 378.25v1.797"/><path d="m219.279 355.485-2.739-3.984 4.195-.21"/><path d="m287.258 395.623 4.195-.353-2.83-3.84"/><path d="m350.784 435.164 4.195-.353-2.83-3.84"/><path d="m323.216 416.592 12.585 7.189"/><path d="m256.094 375.255 25.77 14.977"/><path d="m295.049 398.619 23.972 14.378"/><path d="m230.324 359.678 12.586 7.788"/><path d="m223.132 355.484 2.997 1.798"/><path d="m342.137 429.772-2.74-3.984 4.196-.21"/><path d="m346.589 429.772 2.996 1.798"/><path d="m369.362 446.546 4.195-.355-2.821-3.838"/><path d="m360.715 440.556-2.739-3.997 4.195-.197"/><path d="m364.568 440.556 2.996 1.797"/><path d="m247.104 369.862 2.398 1.798"/><path d="m253.097 369.862v1.798"/><path d="m285.46 389.033v1.797"/></g><path d="m459.462 336.312v102.282l-57.371-33.112-73.091-42.2v-102.282l108.833 62.827z" fill="#17224f"/><path d="m452.462 343.312v102.282l-57.371-33.112-73.091-42.2v-102.282l108.833 62.827z" stroke="#335dff"/><path clip-rule="evenodd" d="m313 269.5 130 75.429v102l-130-75z" fill="url(#ad)" fill-rule="evenodd"/><path clip-rule="evenodd" d="m329 311v44.226l13.022 7.053v-25.281l12.651 23.194 12.663-8.781v25.281l12.651 7.194v-43.855l-13.022-7.411-12.664 8.768-12.65-23.181zm61.035 57.794 19.354 32.206 18.611-10.957-12.664-7.207v-22.298l-12.65-7.207v22.67z" fill="#fff" fill-rule="evenodd"/></svg>