<?xml version="1.0" encoding="utf-8"?>
<svg width="801.92126" height="597.4574" viewBox="0 0 801.92126 597.4574" xmlns="http://www.w3.org/2000/svg">
  <defs>
    <clipPath id="744080f840">
      <path d="M 44 26 L 188 26 L 188 349 L 44 349 Z M 44 26 " clip-rule="nonzero"/>
    </clipPath>
    <clipPath id="cb82596307">
      <path d="M 187.5 26.175781 L 329.277344 112.039062 L 185.914062 348.761719 L 44.136719 262.898438 Z M 187.5 26.175781 " clip-rule="nonzero"/>
    </clipPath>
    <clipPath id="155489f0c6">
      <path d="M 187.5 26.175781 L 329.277344 112.039062 L 185.914062 348.761719 L 44.136719 262.898438 Z M 187.5 26.175781 " clip-rule="nonzero"/>
    </clipPath>
    <clipPath id="c87907dac0">
      <path d="M 188 26 L 331 26 L 331 349 L 188 349 Z M 188 26 " clip-rule="nonzero"/>
    </clipPath>
    <clipPath id="42e211a4ee">
      <path d="M 330.898438 264.195312 L 188.378906 348.820312 L 47.085938 110.855469 L 189.609375 26.234375 Z M 330.898438 264.195312 " clip-rule="nonzero"/>
    </clipPath>
    <clipPath id="1e39b02c5b">
      <path d="M 189.570312 26.171875 L 47.050781 110.792969 L 188.34375 348.757812 L 330.863281 264.136719 Z M 189.570312 26.171875 " clip-rule="nonzero"/>
    </clipPath>
    <clipPath id="36e6080af3">
      <path d="M 44 26 L 188 26 L 188 349 L 44 349 Z M 44 26 " clip-rule="nonzero"/>
    </clipPath>
    <clipPath id="88742f0b95">
      <path d="M 187.5 26.175781 L 329.277344 112.039062 L 185.914062 348.761719 L 44.136719 262.898438 Z M 187.5 26.175781 " clip-rule="nonzero"/>
    </clipPath>
    <clipPath id="3878cfc827">
      <path d="M 187.5 26.175781 L 329.277344 112.039062 L 185.914062 348.761719 L 44.136719 262.898438 Z M 187.5 26.175781 " clip-rule="nonzero"/>
    </clipPath>
    <clipPath id="313330d18f">
      <path d="M 188 26 L 331 26 L 331 349 L 188 349 Z M 188 26 " clip-rule="nonzero"/>
    </clipPath>
    <clipPath id="523436ba33">
      <path d="M 330.898438 264.195312 L 188.378906 348.820312 L 47.085938 110.855469 L 189.609375 26.234375 Z M 330.898438 264.195312 " clip-rule="nonzero"/>
    </clipPath>
    <clipPath id="e4227ea22a">
      <path d="M 189.570312 26.171875 L 47.050781 110.792969 L 188.34375 348.757812 L 330.863281 264.136719 Z M 189.570312 26.171875 " clip-rule="nonzero"/>
    </clipPath>
    <clipPath id="464deabc50">
      <path d="M 44 26 L 188 26 L 188 349 L 44 349 Z M 44 26 " clip-rule="nonzero"/>
    </clipPath>
    <clipPath id="135e045a58">
      <path d="M 187.5 26.175781 L 329.277344 112.039062 L 185.914062 348.761719 L 44.136719 262.898438 Z M 187.5 26.175781 " clip-rule="nonzero"/>
    </clipPath>
    <clipPath id="c0ca8117d3">
      <path d="M 187.5 26.175781 L 329.277344 112.039062 L 185.914062 348.761719 L 44.136719 262.898438 Z M 187.5 26.175781 " clip-rule="nonzero"/>
    </clipPath>
    <clipPath id="094fc3e0e0">
      <path d="M 188 26 L 331 26 L 331 349 L 188 349 Z M 188 26 " clip-rule="nonzero"/>
    </clipPath>
    <clipPath id="53f3782dbd">
      <path d="M 330.898438 264.195312 L 188.378906 348.820312 L 47.085938 110.855469 L 189.609375 26.234375 Z M 330.898438 264.195312 " clip-rule="nonzero"/>
    </clipPath>
    <clipPath id="5856d4c808">
      <path d="M 189.570312 26.171875 L 47.050781 110.792969 L 188.34375 348.757812 L 330.863281 264.136719 Z M 189.570312 26.171875 " clip-rule="nonzero"/>
    </clipPath>
  </defs>
  <circle id="b" cx="436.31396" cy="42" r="18.93406" fill="#6c63ff"/>
  <path id="c-3720" d="M434.43768,49.22279c-.42596,.00072-.84058-.13708-1.1814-.39262l-.02112-.01585-4.44977-3.40392c-.8667-.66447-1.0307-1.90575-.36621-2.77248,.66443-.86673,1.90576-1.0307,2.77246-.36623h0l2.8822,2.21021,6.81079-8.88542c.66418-.86635,1.90491-1.03024,2.77124-.36607l.00006,.00003,.00055,.00043-.0423,.05869,.0434-.05869c.86536,.66507,1.02887,1.90515,.3656,2.77185l-8.01099,10.44653c-.37567,.48787-.95709,.77295-1.57281,.77116l-.00171,.00238Z" fill="#fff"/>
  <circle id="d" cx="436.31396" cy="170" r="18.93405" fill="#6c63ff"/>
  <path id="e-3721" d="M434.43768,177.22278c-.42596,.0007-.84058-.13708-1.1814-.39264l-.02112-.01584-4.44977-3.40393c-.8667-.66446-1.0307-1.90573-.36621-2.77246s1.90576-1.03067,2.77246-.36621l2.8822,2.21021,6.81079-8.88541c.66418-.86633,1.90491-1.03021,2.77124-.36603l.00006,.00003,.00055,.00043-.0423,.05869,.0434-.05869c.86536,.66507,1.02887,1.90515,.3656,2.77185l-8.01099,10.44653c-.37567,.48785-.95709,.77295-1.57281,.77115l-.00171,.00232Z" fill="#fff"/>
  <path d="M483.8642,368.95905c-.23236-5.93018,4.38666-10.9259,10.31683-11.15823,.63226-.02478,1.2655,.00635,1.89227,.09299l17.341-34.02234,9.79852,17.25595-17.96954,29.66269c-1.20624,5.84369-6.92139,9.60303-12.76508,8.39679-4.88965-1.00934-8.45087-5.23767-8.61407-10.22778l.00006-.00006Z" fill="#ffb7b7"/>
  <polygon points="564.71002 583.19397 551.10101 583.19299 544.62701 530.70203 564.71198 530.703 564.71002 583.19397" fill="#ffb7b7"/>
  <path d="M568.18018,596.3855l-43.88049-.00165v-.55499c.00067-9.43243,7.64709-17.07874,17.07953-17.07922h.0011l26.80072,.0011-.00085,17.63477Z" fill="#2f2e41"/>
  <polygon points="638.48297 583.19397 624.87402 583.19299 618.40002 530.70203 638.48499 530.703 638.48297 583.19397" fill="#ffb7b7"/>
  <path d="M641.95349,596.3855l-43.88049-.00165v-.55499c.00067-9.43243,7.64709-17.07874,17.07953-17.07922h.0011l26.80072,.0011-.00085,17.63477Z" fill="#2f2e41"/>
  <path d="M504.76678,339.34869l-5.94092,9.90152s9.90149,0,11.88177,14.8522l7.9212-9.90149-13.86206-14.85223Z" fill="#e5e5e5"/>
  <path d="M608.73242,318.55554s15.84241,41.58627,18.81281,67.33014c2.9704,25.7439,7.9212,94.06415,7.9212,94.06415l9.90155,88.12335-27.72418,3.96057-11.88184-89.11346-26.73401-88.12335-5.94092,88.12329-4.95074,80.20215-25.7439,.99011-1.98035-83.17261-10.89166-105.94598,5.94092-50.49762,73.27112-5.94073Z" fill="#2f2e41"/>
  <polygon points="589.42401 192.312 599.32599 199.242 612.198 328.952 531.99597 330.93201 542.888 240.82899 552.789 215.08501 559.93597 205.636 589.42401 192.312" fill="#e5e5e5"/>
  <path d="M591.40485,285.38553l3.02985-89.56699s5.88153,.45349,7.86182,3.42401,34.65521,8.91135,34.65521,8.91135l-5.94092,92.08389s24.75372,73.27106,15.84241,77.23169-24.75372,2.97046-24.75372,2.97046l-30.69464-95.05441Z" fill="#2f2e41"/>
  <path d="M543.38263,273.99881l10.50378-60.36459-23.37579,15.80786,5.94092,43.56662-4.95074,29.7045s-18.81287,82.18243-12.87201,85.15289,12.87201,0,12.87201,0l11.88184-83.17264v-30.69464Z" fill="#2f2e41"/>
  <path d="M537.44171,227.46179l-6.93109,1.98032-2.97046,39.60599-4.95074,34.65524-23.76355,42.57635s11.88177-7.92117,16.83252,14.85226l26.17065-45.56387-4.38733-88.10629Z" fill="#2f2e41"/>
  <path d="M591.2995,360.83893c.92328-5.86249,6.42419-9.86649,12.28668-8.94324,.62506,.09845,1.24017,.25189,1.83826,.45859l23.61572-30.00879,6.26233,18.82983-23.38599,25.61002c-2.31775,5.49835-8.65393,8.07678-14.15228,5.75903-4.60071-1.93933-7.27332-6.77856-6.46472-11.70544Z" fill="#ffb7b7"/>
  <polygon points="631.50598 350.23999 622.59497 361.13199 610.71301 340.33899 615.66302 331.42801 631.50598 350.23999" fill="#e5e5e5"/>
  <path d="M629.52563,211.61938l7.9212-3.9606s5.94092,7.9212,6.93103,14.85226,5.94092,15.84238,5.94092,20.79312,13.86212,51.48776,13.86212,51.48776l-31.68488,64.35977s-6.93103-23.76358-21.78326-25.7439l24.75372-34.65527-13.86212-24.75372,7.92126-62.37943Z" fill="#2f2e41"/>
  <path d="M800.92126,596.99609H419.92126c-.55231,0-1-.44769-1-1s.44769-1,1-1h381c.55231,0,1,.44769,1,1s-.44769,1-1,1Z" fill="#cbcbcb"/>
  <path d="M365,212H0v-84H365v84Z" fill="#fff"/>
  <path d="M 68.678 155.774 C 66.714 155.774 65.121 157.367 65.121 159.331 C 65.121 161.295 66.714 162.887 68.678 162.887 L 328.337 162.887 C 330.301 162.887 331.894 161.295 331.894 159.331 C 331.894 157.367 330.301 155.774 328.337 155.774 L 68.678 155.774 Z" fill="#6c63ff"/>
  <path d="M 68.678 177.113 C 66.714 177.109 65.118 178.698 65.114 180.662 C 65.11 182.626 66.699 184.221 68.663 184.226 L 232.822 184.226 C 234.786 184.226 236.379 182.633 236.379 180.669 C 236.379 178.705 234.786 177.113 232.822 177.113 L 68.678 177.113 Z" fill="#6c63ff"/>
  <path d="M365,212H0v-84H365v84ZM6,206H359v-72H6v72Z" fill="#e5e5e5"/>
  <path d="M365,340H0v-84H365v84Z" fill="#fff"/>
  <path d="M 69.678 283.774 C 67.714 283.774 66.121 285.367 66.121 287.331 C 66.121 289.295 67.714 290.887 69.678 290.887 L 329.337 290.887 C 331.301 290.887 332.894 289.295 332.894 287.331 C 332.894 285.367 331.301 283.774 329.337 283.774 L 69.678 283.774 Z" fill="#e6e6e6"/>
  <path d="M 69.678 305.113 C 67.714 305.109 66.118 306.698 66.114 308.662 C 66.11 310.626 67.699 312.221 69.663 312.226 L 233.822 312.226 C 235.786 312.226 237.379 310.633 237.379 308.669 C 237.379 306.705 235.786 305.113 233.822 305.113 L 69.678 305.113 Z" fill="#e6e6e6"/>
  <path d="M365,340H0v-84H365v84ZM6,334H359v-72H6v72Z" fill="#e5e5e5"/>
  <path d="M 376 84 L 11 84 L 11 0 L 376 0 L 376 84 Z" fill="#fff"/>
  <path d="M 66.678 27.774 C 64.714 27.778 63.124 29.373 63.128 31.337 C 63.131 33.296 64.719 34.884 66.678 34.887 L 326.337 34.887 C 328.301 34.884 329.891 33.288 329.887 31.324 C 329.884 29.365 328.296 27.778 326.337 27.774 L 66.678 27.774 Z" fill="#6c63ff"/>
  <path d="M 66.678 49.113 C 64.714 49.109 63.118 50.698 63.114 52.662 C 63.11 54.626 64.699 56.221 66.663 56.226 L 230.822 56.226 C 232.786 56.229 234.381 54.64 234.385 52.676 C 234.389 50.712 232.799 49.116 230.835 49.113 C 230.831 49.113 230.826 49.113 230.822 49.113 L 66.678 49.113 Z" fill="#6c63ff"/>
  <path d="M 365 84 L 0 84 L 0 0 L 365 0 L 365 84 Z M 6 78 L 359 78 L 359 6 L 6 6 L 6 78 Z" fill="#e5e5e5"/>
  <path d="M739.24805,597.4574v-72.34003s28.19165,51.28601,0,72.34003Z" fill="#f1f1f1"/>
  <path d="M740.9895,597.4447l-53.28961-48.92126s56.84515,13.91553,53.28961,48.92126Z" fill="#f1f1f1"/>
  <circle id="f" cx="484.31396" cy="347.84558" r="18.93405" fill="#6c63ff"/>
  <path id="g-3722" d="M482.43768,355.06836c-.42596,.00073-.84058-.13708-1.1814-.39261l-.02112-.01587-4.44977-3.40393c-.8667-.66446-1.03064-1.90573-.36621-2.77243,.66449-.86673,1.90576-1.03067,2.77246-.36621h0l2.8822,2.21021,6.81079-8.88541c.66418-.86633,1.90497-1.03021,2.7713-.366h0l.00055,.00043-.0423,.05869,.0434-.05869c.86536,.66507,1.02887,1.90515,.3656,2.77185l-8.01099,10.44653c-.37567,.48785-.95709,.77295-1.57281,.77115l-.00171,.00229Z" fill="#fff"/>
  <circle cx="561.58681" cy="166.8501" r="27.103" fill="#ffb6b6"/>
  <path d="M585.26218,187.67421s8.02722-16.25754,7.88428-22.46415c-.14294-6.20661-4.52893-22.17827-6.37963-23.23151s-21.80963-11.18694-27.21878-8.14007-14.92809,13.4682-25.19506,16.28763c-2.90394,.79745-.36864,15.71588-.36864,15.71588l12.01448-1.73784s12.52606-11.24712,13.06773-3.58854c.54166,7.65857,12.15742,4.46876,12.15742,4.46876l.14294,6.20661,4.75464,.25579,1.30903-6.60533s2.13657,13.46645-.62443,20.47051,8.45603,2.36228,8.45603,2.36228Z" fill="#2f2e41"/>
  <g clip-path="url(#744080f840)" style="" transform="matrix(0.11809, 0, 0, 0.11809, 12.016302, 16.425927)">
    <g clip-path="url(#cb82596307)">
      <g clip-path="url(#155489f0c6)">
        <path fill="#6c63ff" d="M 187.433594 26.273438 L 44.230469 262.882812 C 91.511719 291.421875 138.792969 319.960938 186.074219 348.5 C 186.527344 241.089844 186.980469 133.683594 187.433594 26.273438 " fill-opacity="1" fill-rule="nonzero"/>
      </g>
    </g>
  </g>
  <g clip-path="url(#c87907dac0)" transform="matrix(0.11809, 0, 0, 0.11809, 12.016302, 16.425927)" style="">
    <g clip-path="url(#42e211a4ee)">
      <g clip-path="url(#1e39b02c5b)">
        <path fill="#2f2e41" d="M 189.636719 26.273438 L 330.769531 264.117188 C 283.242188 292.246094 235.714844 320.371094 188.183594 348.496094 C 188.667969 241.085938 189.152344 133.679688 189.636719 26.273438 " fill-opacity="1" fill-rule="nonzero"/>
      </g>
    </g>
  </g>
  <g clip-path="url(#36e6080af3)" transform="matrix(0.1244, 0, 0, 0.1244, 11.345715, 141.980503)" style="">
    <g clip-path="url(#88742f0b95)">
      <g clip-path="url(#3878cfc827)">
        <path fill="#544db3" d="M 187.433594 26.273438 L 44.230469 262.882812 C 91.511719 291.421875 138.792969 319.960938 186.074219 348.5 C 186.527344 241.089844 186.980469 133.683594 187.433594 26.273438 " fill-opacity="1" fill-rule="nonzero"/>
      </g>
    </g>
  </g>
  <g clip-path="url(#313330d18f)" transform="matrix(0.1244, 0, 0, 0.1244, 11.345715, 141.980503)" style="">
    <g clip-path="url(#523436ba33)">
      <g clip-path="url(#e4227ea22a)">
        <path fill="#d9d9d9" d="M 189.636719 26.273438 L 330.769531 264.117188 C 283.242188 292.246094 235.714844 320.371094 188.183594 348.496094 C 188.667969 241.085938 189.152344 133.679688 189.636719 26.273438 " fill-opacity="1" fill-rule="nonzero"/>
      </g>
    </g>
  </g>
  <g clip-path="url(#464deabc50)" transform="matrix(0.120223, 0, 0, 0.122804, 12.394293, 270.957314)" style="">
    <g clip-path="url(#135e045a58)">
      <g clip-path="url(#c0ca8117d3)">
        <path fill="#2f2e41" d="M 187.433594 26.273438 L 44.230469 262.882812 C 91.511719 291.421875 138.792969 319.960938 186.074219 348.5 C 186.527344 241.089844 186.980469 133.683594 187.433594 26.273438 " fill-opacity="1" fill-rule="nonzero"/>
      </g>
    </g>
  </g>
  <g clip-path="url(#094fc3e0e0)" transform="matrix(0.120223, 0, 0, 0.122804, 12.394293, 270.957314)" style="">
    <g clip-path="url(#53f3782dbd)">
      <g clip-path="url(#5856d4c808)">
        <path fill="#d9d9d9" d="M 189.636719 26.273438 L 330.769531 264.117188 C 283.242188 292.246094 235.714844 320.371094 188.183594 348.496094 C 188.667969 241.085938 189.152344 133.679688 189.636719 26.273438 " fill-opacity="1" fill-rule="nonzero"/>
      </g>
    </g>
  </g>
</svg>