<?xml version="1.0" encoding="UTF-8"?>
<svg xmlns="http://www.w3.org/2000/svg" version="1.1" xmlns:xlink="http://www.w3.org/1999/xlink" viewBox="0 0 54 48.89">
  <defs>
    <style>
      .cls-1 {
        opacity: .3;
      }

      .cls-1, .cls-2 {
        fill: #231f20;
      }

      .cls-3 {
        fill: #fff;
        opacity: .2;
      }

      .cls-4 {
        fill: #47485e;
      }

      .cls-2 {
        opacity: .15;
      }

      .cls-5 {
        clip-path: url(#clippath-1);
      }

      .cls-6 {
        fill: #75a2d9;
      }

      .cls-7 {
        clip-path: url(#clippath-2);
      }

      .cls-8 {
        clip-path: url(#clippath);
      }
    </style>
    <clipPath id="clippath">
      <path class="cls-6" d="M9,26c1.73-1,7-2,7,2v18c0,4-5.27,3-7,2v-22ZM45,26c-1.73-1-7-2-7,2v18c0,4,5.27,3,7,2v-22Z"/>
    </clipPath>
    <clipPath id="clippath-1">
      <path class="cls-4" d="M46.04,9.22s-.59.34-4.54,2.62c-1.12.65-2.21.89-3.07.41-1.93-1.07-4.28-4.38-11.43-4.38s-9.5,3.31-11.43,4.37c-.86.48-1.95.24-3.07-.41-4.19-2.42-4.54-2.62-4.54-2.62,0,0,5.92-7.09,19.04-7.09s19.04,7.09,19.04,7.09Z"/>
    </clipPath>
    <clipPath id="clippath-2">
      <path class="cls-4" d="M50,25C50,12.3,44.37,0,27,0S4,12.3,4,25v20.11l5,2.89v-23c0-9.94,4.41-20,18-20s18,10.06,18,20v23l5-2.89v-20.11Z"/>
    </clipPath>
  </defs>
  
  <g>
    <g id="Layer_1">
      <g>
        <g>
          <path class="cls-6" d="M9,26c1.73-1,7-2,7,2v18c0,4-5.27,3-7,2v-22ZM45,26c-1.73-1-7-2-7,2v18c0,4,5.27,3,7,2v-22Z"/>
          <g class="cls-8">
            <rect class="cls-2" x="2" y="23" width="19" height="28"/>
          </g>
        </g>
        <path class="cls-4" d="M9,37c0-4.48-2.61-15.27-5-13.89-2.39,1.38-4,10.41-4,14.89s1.61,5.73,4,7.11c2.39,1.38,5-3.63,5-8.11Z"/>
        <path class="cls-4" d="M45,37c0-4.48,2.61-15.27,5-13.89,2.39,1.38,4,10.41,4,14.89s-1.61,5.73-4,7.11c-2.39,1.38-5-3.63-5-8.11Z"/>
        <g>
          <path class="cls-4" d="M46.04,9.22s-.59.34-4.54,2.62c-1.12.65-2.21.89-3.07.41-1.93-1.07-4.28-4.38-11.43-4.38s-9.5,3.31-11.43,4.37c-.86.48-1.95.24-3.07-.41-4.19-2.42-4.54-2.62-4.54-2.62,0,0,5.92-7.09,19.04-7.09s19.04,7.09,19.04,7.09Z"/>
          <g class="cls-5">
            <rect class="cls-1" x="27" y="5" width="15.46" height="8.44"/>
          </g>
        </g>
        <g>
          <path class="cls-4" d="M50,25C50,12.3,44.37,0,27,0S4,12.3,4,25v20.11l5,2.89v-23c0-9.94,4.41-20,18-20s18,10.06,18,20v23l5-2.89v-20.11Z"/>
          <g class="cls-7">
            <polygon class="cls-1" points="51.39 52.42 41.56 46.74 41.56 18.24 51.39 23.91 51.39 52.42"/>
            <rect class="cls-3" x=".92" y="-1.5" width="26.08" height="50.39"/>
          </g>
        </g>
      </g>
    </g>
  </g>
</svg>