<?xml version="1.0" standalone="no"?>
<!DOCTYPE svg PUBLIC "-//W3C//DTD SVG 20010904//EN"
 "http://www.w3.org/TR/2001/REC-SVG-20010904/DTD/svg10.dtd">
<svg version="1.0" xmlns="http://www.w3.org/2000/svg"
 width="700.000000pt" height="700.000000pt" viewBox="0 0 700.000000 700.000000"
 preserveAspectRatio="xMidYMid meet">
<metadata>
Created by potrace 1.14, written by Peter Selinger 2001-2017
</metadata>
<g transform="translate(0.000000,700.000000) scale(0.100000,-0.100000)"
fill="#000000" stroke="none">
<path d="M3441 6407 c-30 -50 -63 -103 -72 -117 -9 -14 -194 -317 -410 -675
-216 -357 -482 -798 -592 -980 -110 -181 -309 -510 -442 -730 -133 -220 -332
-548 -442 -730 -549 -906 -653 -1079 -653 -1080 0 -3 46 -31 330 -202 118 -72
377 -228 575 -348 198 -120 374 -226 390 -235 35 -21 614 -371 885 -535 102
-62 201 -122 220 -133 19 -11 80 -47 134 -81 55 -33 102 -58 105 -56 2 3 5
256 7 563 1 306 5 1261 8 2122 4 861 9 1958 11 2438 2 479 3 872 2 872 -1 0
-27 -42 -56 -93z"/>
<path d="M3540 6295 c-1 -115 -3 -532 -5 -925 -2 -393 -7 -1354 -10 -2135 -3
-781 -8 -1716 -9 -2078 -2 -361 -1 -657 1 -657 5 0 132 75 593 348 331 197
550 326 595 352 17 10 138 82 270 160 416 248 659 392 695 412 128 74 477 283
487 292 10 9 -7 43 -71 151 -45 77 -284 480 -531 895 -246 415 -540 910 -653
1100 -439 738 -1326 2234 -1350 2275 -9 16 -12 -27 -12 -190z"/>
</g>
</svg>
